<svg width="202" height="83" viewBox="0 0 202 83" fill="none" xmlns="http://www.w3.org/2000/svg">
<path d="M1.93325 18.904C2.69333 18.9371 3.66822 18.9701 4.85791 19.0032C6.08065 19.0362 7.28687 19.0528 8.47656 19.0528C10.0628 19.0528 11.5665 19.0362 12.9875 19.0032C14.4416 18.9701 15.466 18.9536 16.0609 18.9536C19.7621 18.9536 22.5216 19.6807 24.3391 21.1347C26.1898 22.5888 27.1151 24.4559 27.1151 26.7362C27.1151 27.8928 26.8342 29.0495 26.2724 30.2061C25.7436 31.3297 24.8679 32.3542 23.6452 33.2795C22.4224 34.1718 20.8031 34.8823 18.7872 35.411V35.5102C21.5632 35.8076 23.7443 36.4025 25.3306 37.2947C26.9168 38.187 28.0404 39.261 28.7014 40.5168C29.3623 41.7395 29.6928 43.0284 29.6928 44.3833C29.6928 46.3331 29.1971 48.035 28.2056 49.4891C27.2142 50.9101 25.7767 52.0172 23.893 52.8103C22.0424 53.6034 19.8117 54 17.201 54C16.4739 54 15.3669 53.9835 13.8798 53.9504C12.4257 53.8843 10.6577 53.8513 8.57571 53.8513C7.31992 53.8513 6.08065 53.8678 4.85791 53.9009C3.66822 53.9009 2.69333 53.9339 1.93325 54V53.0086C3.05685 52.9425 3.89955 52.8103 4.46135 52.612C5.02315 52.4137 5.38667 52.0172 5.5519 51.4223C5.75018 50.8275 5.84933 49.9352 5.84933 48.7455V24.1585C5.84933 22.9358 5.75018 22.0435 5.5519 21.4817C5.38667 20.8869 5.00663 20.4903 4.41178 20.292C3.84998 20.0607 3.0238 19.9285 1.93325 19.8955V18.904ZM15.0199 19.8955C13.5989 19.8955 12.657 20.1764 12.1944 20.7382C11.7647 21.3 11.5499 22.4401 11.5499 24.1585V48.7455C11.5499 49.9022 11.6491 50.7779 11.8474 51.3728C12.0456 51.9676 12.3926 52.3642 12.8883 52.5625C13.4171 52.7607 14.1772 52.8599 15.1686 52.8599C18.1428 52.8599 20.2909 52.1163 21.6128 50.6292C22.9677 49.109 23.6452 46.961 23.6452 44.185C23.6452 41.6404 22.9677 39.6741 21.6128 38.2861C20.2909 36.8982 18.0933 36.2042 15.0199 36.2042H10.2115C10.2115 36.2042 10.2115 36.072 10.2115 35.8076C10.2115 35.5102 10.2115 35.3615 10.2115 35.3615H14.4746C16.2922 35.3615 17.6967 34.998 18.6881 34.2709C19.6795 33.5108 20.357 32.5194 20.7205 31.2967C21.084 30.0409 21.2658 28.7025 21.2658 27.2815C21.2658 24.836 20.7866 23.0019 19.8282 21.7791C18.8699 20.5234 17.2671 19.8955 15.0199 19.8955ZM39.9872 54.347C38.5992 54.347 37.4095 54.0826 36.4181 53.5539C35.4267 53.0251 34.6831 52.2981 34.1874 51.3728C33.6917 50.4474 33.4439 49.3899 33.4439 48.2002C33.4439 46.7462 33.7743 45.573 34.4353 44.6807C35.0962 43.7554 35.9389 43.0119 36.9634 42.4501C38.0209 41.8883 39.1279 41.4256 40.2846 41.0621C41.4743 40.6655 42.5814 40.302 43.6058 39.9715C44.6633 39.608 45.5225 39.1949 46.1835 38.7323C46.8775 38.2696 47.2245 37.6582 47.2245 36.8982V33.5274C47.2245 32.3377 47.0262 31.3958 46.6296 30.7018C46.2661 29.9748 45.7539 29.4626 45.0929 29.1652C44.465 28.8677 43.705 28.719 42.8127 28.719C42.0526 28.719 41.243 28.8347 40.3837 29.066C39.5245 29.2643 38.847 29.6774 38.3513 30.3053C39.0784 30.5036 39.6732 30.9001 40.1359 31.495C40.6316 32.0568 40.8794 32.7673 40.8794 33.6265C40.8794 34.5518 40.5655 35.2789 39.9376 35.8076C39.3428 36.3364 38.5827 36.6007 37.6574 36.6007C36.6329 36.6007 35.8728 36.2868 35.3771 35.6589C34.8814 34.998 34.6336 34.2379 34.6336 33.3786C34.6336 32.4864 34.8484 31.7593 35.278 31.1975C35.7406 30.6357 36.3355 30.107 37.0625 29.6113C37.8556 29.0825 38.8636 28.6364 40.0863 28.2729C41.3421 27.9094 42.7301 27.7276 44.2502 27.7276C45.6713 27.7276 46.894 27.8928 47.9185 28.2233C48.976 28.5207 49.8517 29.0164 50.5457 29.7104C51.3719 30.4705 51.9172 31.4289 52.1815 32.5855C52.4459 33.7091 52.5781 35.0806 52.5781 36.6999V50.3813C52.5781 51.2075 52.6772 51.8024 52.8755 52.1659C53.1068 52.4964 53.4704 52.6616 53.9661 52.6616C54.2965 52.6616 54.6105 52.579 54.9079 52.4137C55.2384 52.2485 55.6184 52.0007 56.048 51.6702L56.5437 52.5129C55.8497 53.0747 55.1392 53.5208 54.4122 53.8513C53.7182 54.1818 52.8259 54.347 51.7354 54.347C50.6779 54.347 49.8187 54.1818 49.1577 53.8513C48.4968 53.5208 48.0011 53.0416 47.6706 52.4137C47.3732 51.7858 47.2245 51.0092 47.2245 50.0839C46.3652 51.4719 45.3408 52.5294 44.1511 53.2564C42.9614 53.9835 41.5734 54.347 39.9872 54.347ZM42.3666 51.9676C43.2919 51.9676 44.1511 51.7032 44.9442 51.1745C45.7704 50.6457 46.5305 49.8526 47.2245 48.7951V38.9306C46.861 39.4593 46.3322 39.922 45.6382 40.3185C44.9442 40.682 44.2007 41.0621 43.4075 41.4586C42.6144 41.8552 41.8543 42.3179 41.1273 42.8466C40.4333 43.3423 39.855 43.9867 39.3923 44.7799C38.9297 45.573 38.6983 46.5809 38.6983 47.8037C38.6983 49.0925 39.0288 50.117 39.6897 50.8771C40.3507 51.6041 41.243 51.9676 42.3666 51.9676ZM67.3443 63.3193C65.4937 63.3193 63.7752 63.1375 62.189 62.774C60.6358 62.4105 59.38 61.8487 58.4216 61.0886C57.4963 60.3616 57.0336 59.4197 57.0336 58.2631C57.0336 57.1725 57.4963 56.2142 58.4216 55.388C59.3469 54.5618 60.6523 53.9339 62.3377 53.5043L62.6847 54.2974C61.9907 54.5948 61.4454 55.074 61.0488 55.735C60.6853 56.3959 60.5036 57.1229 60.5036 57.9161C60.5036 59.3701 61.181 60.4937 62.536 61.2869C63.8909 62.08 65.6754 62.4766 67.8896 62.4766C69.3767 62.4766 70.7812 62.2783 72.1031 61.8817C73.458 61.5182 74.5486 60.9068 75.3747 60.0476C76.234 59.1884 76.6636 58.0813 76.6636 56.7264C76.6636 55.6689 76.2835 54.7766 75.5234 54.0496C74.7634 53.3556 73.2597 53.0086 71.0125 53.0086H67.5426C66.3859 53.0086 65.3119 52.9094 64.3205 52.7112C63.3291 52.5129 62.5194 52.1328 61.8915 51.571C61.2967 50.9762 60.9993 50.15 60.9993 49.0925C60.9993 47.9028 61.495 46.7792 62.4864 45.7217C63.4778 44.6642 65.1467 43.6232 67.493 42.5988L68.0879 43.0449C67.1295 43.5737 66.2703 44.1189 65.5102 44.6807C64.7832 45.2095 64.4196 45.8704 64.4196 46.6636C64.4196 47.7211 65.1797 48.2498 66.6999 48.2498H72.5988C74.152 48.2498 75.5565 48.4646 76.8123 48.8942C78.0681 49.2908 79.076 49.9352 79.8361 50.8275C80.5962 51.7198 80.9762 52.8929 80.9762 54.347C80.9762 55.9002 80.464 57.3543 79.4395 58.7092C78.4481 60.0972 76.9445 61.2043 74.9286 62.0304C72.9127 62.8897 70.3846 63.3193 67.3443 63.3193ZM67.6417 43.4415C65.9563 43.4415 64.4196 43.1771 63.0317 42.6483C61.6437 42.0865 60.5531 41.2273 59.76 40.0707C58.9669 38.914 58.5703 37.4269 58.5703 35.6093C58.5703 33.7917 58.9669 32.3046 59.76 31.148C60.5531 29.9583 61.6437 29.0991 63.0317 28.5703C64.4196 28.0085 65.9563 27.7276 67.6417 27.7276C69.3932 27.7276 70.9464 28.0085 72.3014 28.5703C73.6563 29.0991 74.7303 29.9583 75.5234 31.148C76.3166 32.3046 76.7131 33.7917 76.7131 35.6093C76.7131 37.4269 76.3166 38.914 75.5234 40.0707C74.7303 41.2273 73.6563 42.0865 72.3014 42.6483C70.9464 43.1771 69.3932 43.4415 67.6417 43.4415ZM67.6417 42.5492C68.7984 42.5492 69.6906 42.0535 70.3185 41.0621C70.9464 40.0707 71.2604 38.2531 71.2604 35.6093C71.2604 32.9656 70.9464 31.148 70.3185 30.1566C69.6906 29.1321 68.7984 28.6199 67.6417 28.6199C66.5512 28.6199 65.6754 29.1321 65.0145 30.1566C64.3536 31.148 64.0231 32.9656 64.0231 35.6093C64.0231 38.2531 64.3536 40.0707 65.0145 41.0621C65.6754 42.0535 66.5512 42.5492 67.6417 42.5492ZM74.9782 31.8915L74.0859 31.5445C74.5486 30.3879 75.3417 29.38 76.4653 28.5207C77.5889 27.6615 78.7621 27.2319 79.9848 27.2319C80.9101 27.2319 81.6372 27.4963 82.1659 28.025C82.7277 28.5207 83.0086 29.2312 83.0086 30.1566C83.0086 31.181 82.7277 31.9081 82.1659 32.3377C81.6372 32.7673 81.0754 32.9821 80.4805 32.9821C79.9518 32.9821 79.456 32.8003 78.9934 32.4368C78.5638 32.0733 78.3159 31.5115 78.2498 30.7514C78.1837 29.9583 78.4316 28.9503 78.9934 27.7276L79.5387 27.9259C78.2168 28.4546 77.2419 29.0164 76.614 29.6113C76.0192 30.1731 75.4739 30.9332 74.9782 31.8915ZM91.1068 54.347C89.7188 54.347 88.5291 54.0826 87.5377 53.5539C86.5463 53.0251 85.8027 52.2981 85.307 51.3728C84.8113 50.4474 84.5635 49.3899 84.5635 48.2002C84.5635 46.7462 84.894 45.573 85.5549 44.6807C86.2158 43.7554 87.0585 43.0119 88.083 42.4501C89.1405 41.8883 90.2476 41.4256 91.4042 41.0621C92.5939 40.6655 93.701 40.302 94.7254 39.9715C95.783 39.608 96.6422 39.1949 97.3031 38.7323C97.9971 38.2696 98.3441 37.6582 98.3441 36.8982V33.5274C98.3441 32.3377 98.1458 31.3958 97.7493 30.7018C97.3857 29.9748 96.8735 29.4626 96.2126 29.1652C95.5847 28.8677 94.8246 28.719 93.9323 28.719C93.1722 28.719 92.3626 28.8347 91.5034 29.066C90.6441 29.2643 89.9667 29.6774 89.471 30.3053C90.198 30.5036 90.7929 30.9001 91.2555 31.495C91.7512 32.0568 91.9991 32.7673 91.9991 33.6265C91.9991 34.5518 91.6851 35.2789 91.0572 35.8076C90.4624 36.3364 89.7023 36.6007 88.777 36.6007C87.7525 36.6007 86.9924 36.2868 86.4967 35.6589C86.001 34.998 85.7532 34.2379 85.7532 33.3786C85.7532 32.4864 85.968 31.7593 86.3976 31.1975C86.8603 30.6357 87.4551 30.107 88.1821 29.6113C88.9753 29.0825 89.9832 28.6364 91.2059 28.2729C92.4617 27.9094 93.8497 27.7276 95.3699 27.7276C96.7909 27.7276 98.0136 27.8928 99.0381 28.2233C100.096 28.5207 100.971 29.0164 101.665 29.7104C102.492 30.4705 103.037 31.4289 103.301 32.5855C103.566 33.7091 103.698 35.0806 103.698 36.6999V50.3813C103.698 51.2075 103.797 51.8024 103.995 52.1659C104.226 52.4964 104.59 52.6616 105.086 52.6616C105.416 52.6616 105.73 52.579 106.028 52.4137C106.358 52.2485 106.738 52.0007 107.168 51.6702L107.663 52.5129C106.969 53.0747 106.259 53.5208 105.532 53.8513C104.838 54.1818 103.946 54.347 102.855 54.347C101.798 54.347 100.938 54.1818 100.277 53.8513C99.6164 53.5208 99.1207 53.0416 98.7902 52.4137C98.4928 51.7858 98.3441 51.0092 98.3441 50.0839C97.4849 51.4719 96.4604 52.5294 95.2707 53.2564C94.081 53.9835 92.6931 54.347 91.1068 54.347ZM93.4862 51.9676C94.4115 51.9676 95.2707 51.7032 96.0639 51.1745C96.89 50.6457 97.6501 49.8526 98.3441 48.7951V38.9306C97.9806 39.4593 97.4518 39.922 96.7578 40.3185C96.0639 40.682 95.3203 41.0621 94.5272 41.4586C93.734 41.8552 92.974 42.3179 92.2469 42.8466C91.5529 43.3423 90.9746 43.9867 90.512 44.7799C90.0493 45.573 89.818 46.5809 89.818 47.8037C89.818 49.0925 90.1484 50.117 90.8094 50.8771C91.4703 51.6041 92.3626 51.9676 93.4862 51.9676ZM115.093 15.9298C116.118 15.9298 116.977 16.2603 117.671 16.9212C118.365 17.5491 118.712 18.3422 118.712 19.3006C118.712 20.259 118.365 21.0686 117.671 21.7296C116.977 22.3575 116.118 22.6714 115.093 22.6714C114.069 22.6714 113.209 22.3575 112.515 21.7296C111.821 21.0686 111.474 20.259 111.474 19.3006C111.474 18.3422 111.821 17.5491 112.515 16.9212C113.209 16.2603 114.069 15.9298 115.093 15.9298ZM118.067 27.8763V49.3899C118.067 50.7779 118.332 51.7198 118.861 52.2155C119.422 52.7112 120.348 52.959 121.636 52.959V54C121.075 53.967 120.199 53.9339 119.009 53.9009C117.853 53.8348 116.663 53.8017 115.44 53.8017C114.283 53.8017 113.094 53.8348 111.871 53.9009C110.648 53.9339 109.74 53.967 109.145 54V52.959C110.434 52.959 111.342 52.7112 111.871 52.2155C112.433 51.7198 112.714 50.7779 112.714 49.3899V33.8248C112.714 32.3377 112.466 31.2471 111.97 30.5531C111.474 29.8261 110.533 29.4626 109.145 29.4626V28.4216C110.202 28.5207 111.227 28.5703 112.218 28.5703C113.342 28.5703 114.383 28.5207 115.341 28.4216C116.332 28.2894 117.241 28.1076 118.067 27.8763ZM136.597 27.7276C137.721 27.7276 138.795 27.8763 139.819 28.1737C140.844 28.4381 141.736 28.8182 142.496 29.3139C143.289 29.8096 143.884 30.4044 144.281 31.0984C144.71 31.7924 144.925 32.5525 144.925 33.3786C144.925 34.3701 144.644 35.1467 144.082 35.7085C143.52 36.2703 142.793 36.5512 141.901 36.5512C141.009 36.5512 140.265 36.3033 139.67 35.8076C139.076 35.3119 138.778 34.6014 138.778 33.6761C138.778 32.8168 139.026 32.1229 139.522 31.5941C140.017 31.0323 140.596 30.6688 141.257 30.5036C140.959 30.0079 140.431 29.5948 139.67 29.2643C138.943 28.9008 138.15 28.719 137.291 28.719C136.399 28.719 135.54 28.9503 134.713 29.413C133.92 29.8757 133.21 30.5862 132.582 31.5445C131.954 32.5029 131.442 33.7422 131.045 35.2623C130.682 36.7825 130.5 38.6166 130.5 40.7647C130.5 43.5406 130.814 45.7548 131.442 47.4071C132.103 49.0264 132.962 50.1831 134.019 50.8771C135.077 51.571 136.217 51.918 137.44 51.918C138.233 51.918 139.043 51.7693 139.869 51.4719C140.728 51.1745 141.538 50.6788 142.298 49.9848C143.091 49.2908 143.785 48.349 144.38 47.1593L145.321 47.5063C144.958 48.5968 144.38 49.7039 143.587 50.8275C142.826 51.9511 141.819 52.8764 140.563 53.6034C139.307 54.3305 137.77 54.694 135.953 54.694C133.871 54.694 131.987 54.1818 130.302 53.1573C128.616 52.1328 127.278 50.6457 126.286 48.696C125.295 46.7131 124.799 44.3007 124.799 41.4586C124.799 38.6827 125.295 36.2703 126.286 34.2213C127.311 32.1394 128.715 30.5366 130.5 29.413C132.284 28.2894 134.317 27.7276 136.597 27.7276ZM156.835 15.1863V33.2299C157.661 31.181 158.817 29.76 160.305 28.9669C161.825 28.1407 163.428 27.7276 165.113 27.7276C166.435 27.7276 167.509 27.9094 168.335 28.2729C169.194 28.6034 169.905 29.066 170.467 29.6609C171.061 30.2888 171.491 31.0984 171.755 32.0898C172.02 33.0812 172.152 34.4196 172.152 36.105V49.3899C172.152 50.7779 172.416 51.7198 172.945 52.2155C173.507 52.7112 174.432 52.959 175.721 52.959V54C175.126 53.967 174.234 53.9339 173.044 53.9009C171.855 53.8348 170.698 53.8017 169.574 53.8017C168.418 53.8017 167.278 53.8348 166.154 53.9009C165.063 53.9339 164.254 53.967 163.725 54V52.959C164.849 52.959 165.642 52.7112 166.104 52.2155C166.567 51.7198 166.798 50.7779 166.798 49.3899V34.7171C166.798 33.7587 166.716 32.8995 166.55 32.1394C166.385 31.3463 166.022 30.7184 165.46 30.2557C164.931 29.76 164.138 29.5121 163.081 29.5121C161.891 29.5121 160.817 29.8591 159.858 30.5531C158.933 31.2141 158.19 32.1394 157.628 33.3291C157.099 34.5188 156.835 35.8737 156.835 37.3939V49.3899C156.835 50.7779 157.066 51.7198 157.529 52.2155C157.991 52.7112 158.784 52.959 159.908 52.959V54C159.346 53.967 158.52 53.9339 157.429 53.9009C156.372 53.8348 155.281 53.8017 154.158 53.8017C153.001 53.8017 151.811 53.8348 150.589 53.9009C149.399 53.9339 148.507 53.967 147.912 54V52.959C149.201 52.959 150.11 52.7112 150.638 52.2155C151.2 51.7198 151.481 50.7779 151.481 49.3899V21.1347C151.481 19.6476 151.217 18.5571 150.688 17.8631C150.192 17.136 149.267 16.7725 147.912 16.7725V15.7315C148.969 15.8307 149.994 15.8802 150.985 15.8802C152.076 15.8802 153.117 15.8307 154.108 15.7315C155.1 15.5993 156.008 15.4176 156.835 15.1863ZM184.729 54.347C183.341 54.347 182.152 54.0826 181.16 53.5539C180.169 53.0251 179.425 52.2981 178.93 51.3728C178.434 50.4474 178.186 49.3899 178.186 48.2002C178.186 46.7462 178.516 45.573 179.177 44.6807C179.838 43.7554 180.681 43.0119 181.706 42.4501C182.763 41.8883 183.87 41.4256 185.027 41.0621C186.216 40.6655 187.324 40.302 188.348 39.9715C189.405 39.608 190.265 39.1949 190.926 38.7323C191.62 38.2696 191.967 37.6582 191.967 36.8982V33.5274C191.967 32.3377 191.768 31.3958 191.372 30.7018C191.008 29.9748 190.496 29.4626 189.835 29.1652C189.207 28.8677 188.447 28.719 187.555 28.719C186.795 28.719 185.985 28.8347 185.126 29.066C184.267 29.2643 183.589 29.6774 183.093 30.3053C183.821 30.5036 184.415 30.9001 184.878 31.495C185.374 32.0568 185.622 32.7673 185.622 33.6265C185.622 34.5518 185.308 35.2789 184.68 35.8076C184.085 36.3364 183.325 36.6007 182.399 36.6007C181.375 36.6007 180.615 36.2868 180.119 35.6589C179.624 34.998 179.376 34.2379 179.376 33.3786C179.376 32.4864 179.59 31.7593 180.02 31.1975C180.483 30.6357 181.078 30.107 181.805 29.6113C182.598 29.0825 183.606 28.6364 184.828 28.2729C186.084 27.9094 187.472 27.7276 188.992 27.7276C190.413 27.7276 191.636 27.8928 192.661 28.2233C193.718 28.5207 194.594 29.0164 195.288 29.7104C196.114 30.4705 196.659 31.4289 196.924 32.5855C197.188 33.7091 197.32 35.0806 197.32 36.6999V50.3813C197.32 51.2075 197.419 51.8024 197.618 52.1659C197.849 52.4964 198.213 52.6616 198.708 52.6616C199.039 52.6616 199.353 52.579 199.65 52.4137C199.981 52.2485 200.361 52.0007 200.79 51.6702L201.286 52.5129C200.592 53.0747 199.881 53.5208 199.154 53.8513C198.46 54.1818 197.568 54.347 196.478 54.347C195.42 54.347 194.561 54.1818 193.9 53.8513C193.239 53.5208 192.743 53.0416 192.413 52.4137C192.115 51.7858 191.967 51.0092 191.967 50.0839C191.107 51.4719 190.083 52.5294 188.893 53.2564C187.704 53.9835 186.316 54.347 184.729 54.347ZM187.109 51.9676C188.034 51.9676 188.893 51.7032 189.686 51.1745C190.513 50.6457 191.273 49.8526 191.967 48.7951V38.9306C191.603 39.4593 191.074 39.922 190.38 40.3185C189.686 40.682 188.943 41.0621 188.15 41.4586C187.357 41.8552 186.596 42.3179 185.869 42.8466C185.175 43.3423 184.597 43.9867 184.134 44.7799C183.672 45.573 183.44 46.5809 183.44 47.8037C183.44 49.0925 183.771 50.117 184.432 50.8771C185.093 51.6041 185.985 51.9676 187.109 51.9676Z" fill="white"/>
<path d="M1.56072 73.9091C1.56072 73.2492 1.69033 72.6718 1.94957 72.1769C2.21666 71.6742 2.58194 71.2892 3.04542 71.0221C3.51675 70.7472 4.047 70.6097 4.63617 70.6097C5.2489 70.6097 5.77522 70.7511 6.21513 71.0339C6.6629 71.3167 6.98498 71.6781 7.18137 72.118V70.704H8.0062V77.1377H7.18137V75.7119C6.97712 76.1518 6.65112 76.5171 6.20335 76.8078C5.76344 77.0906 5.23712 77.232 4.62438 77.232C4.04307 77.232 3.51675 77.0945 3.04542 76.8195C2.58194 76.5446 2.21666 76.1558 1.94957 75.653C1.69033 75.1502 1.56072 74.5689 1.56072 73.9091ZM7.18137 73.9208C7.18137 73.4024 7.07532 72.9468 6.86322 72.554C6.65112 72.1612 6.36046 71.8588 5.99125 71.6467C5.6299 71.4346 5.22926 71.3285 4.78935 71.3285C4.33373 71.3285 3.92524 71.4306 3.56388 71.6349C3.20253 71.8391 2.9158 72.1376 2.7037 72.5304C2.49946 72.9153 2.39733 73.3749 2.39733 73.9091C2.39733 74.4354 2.49946 74.8989 2.7037 75.2995C2.9158 75.6923 3.20253 75.9947 3.56388 76.2068C3.92524 76.4111 4.33373 76.5132 4.78935 76.5132C5.22926 76.5132 5.6299 76.4071 5.99125 76.195C6.36046 75.9829 6.65112 75.6805 6.86322 75.2877C7.07532 74.8949 7.18137 74.4393 7.18137 73.9208ZM14.525 72.118C14.7292 71.6859 15.0513 71.3285 15.4912 71.0457C15.939 70.7551 16.4692 70.6097 17.0819 70.6097C17.6633 70.6097 18.1856 70.7472 18.6491 71.0221C19.1205 71.2892 19.4857 71.6742 19.745 72.1769C20.0121 72.6718 20.1456 73.2492 20.1456 73.9091C20.1456 74.5689 20.0121 75.1502 19.745 75.653C19.4857 76.1558 19.1205 76.5446 18.6491 76.8195C18.1856 77.0945 17.6633 77.232 17.0819 77.232C16.4771 77.232 15.9507 77.0906 15.503 76.8078C15.0552 76.5171 14.7292 76.1558 14.525 75.7237V80.1778H13.7119V70.704H14.525V72.118ZM19.309 73.9091C19.309 73.3749 19.2029 72.9153 18.9908 72.5304C18.7866 72.1376 18.5038 71.8391 18.1424 71.6349C17.7811 71.4306 17.3726 71.3285 16.917 71.3285C16.4771 71.3285 16.0725 71.4346 15.7033 71.6467C15.3419 71.8588 15.0552 72.1612 14.8431 72.554C14.631 72.9468 14.525 73.4024 14.525 73.9208C14.525 74.4393 14.631 74.8949 14.8431 75.2877C15.0552 75.6805 15.3419 75.9829 15.7033 76.195C16.0725 76.4071 16.4771 76.5132 16.917 76.5132C17.3726 76.5132 17.7811 76.4111 18.1424 76.2068C18.5038 75.9947 18.7866 75.6923 18.9908 75.2995C19.2029 74.8989 19.309 74.4354 19.309 73.9091ZM22.7828 68.418V77.1377H21.9579V68.418H22.7828ZM24.5681 73.9091C24.5681 73.2492 24.6978 72.6718 24.957 72.1769C25.2241 71.6742 25.5894 71.2892 26.0528 71.0221C26.5242 70.7472 27.0544 70.6097 27.6436 70.6097C28.2563 70.6097 28.7826 70.7511 29.2226 71.0339C29.6703 71.3167 29.9924 71.6781 30.1888 72.118V70.704H31.0136V77.1377H30.1888V75.7119C29.9845 76.1518 29.6585 76.5171 29.2108 76.8078C28.7709 77.0906 28.2445 77.232 27.6318 77.232C27.0505 77.232 26.5242 77.0945 26.0528 76.8195C25.5894 76.5446 25.2241 76.1558 24.957 75.653C24.6978 75.1502 24.5681 74.5689 24.5681 73.9091ZM30.1888 73.9208C30.1888 73.4024 30.0827 72.9468 29.8706 72.554C29.6585 72.1612 29.3679 71.8588 28.9987 71.6467C28.6373 71.4346 28.2367 71.3285 27.7968 71.3285C27.3411 71.3285 26.9327 71.4306 26.5713 71.6349C26.2099 71.8391 25.9232 72.1376 25.7111 72.5304C25.5069 72.9153 25.4048 73.3749 25.4048 73.9091C25.4048 74.4354 25.5069 74.8989 25.7111 75.2995C25.9232 75.6923 26.2099 75.9947 26.5713 76.2068C26.9327 76.4111 27.3411 76.5132 27.7968 76.5132C28.2367 76.5132 28.6373 76.4071 28.9987 76.195C29.3679 75.9829 29.6585 75.6805 29.8706 75.2877C30.0827 74.8949 30.1888 74.4393 30.1888 73.9208ZM32.8142 73.9208C32.8142 73.2531 32.9477 72.6718 33.2148 72.1769C33.4819 71.6742 33.8511 71.2892 34.3224 71.0221C34.7938 70.7472 35.3319 70.6097 35.9368 70.6097C36.7302 70.6097 37.3822 70.8061 37.8928 71.1989C38.4113 71.5917 38.7451 72.1259 38.8944 72.8014H38.0106C37.9006 72.338 37.661 71.9766 37.2918 71.7174C36.9305 71.4503 36.4788 71.3167 35.9368 71.3167C35.5047 71.3167 35.1158 71.4149 34.7702 71.6113C34.4246 71.8077 34.1496 72.1023 33.9454 72.4951C33.749 72.88 33.6508 73.3552 33.6508 73.9208C33.6508 74.4864 33.749 74.9656 33.9454 75.3584C34.1496 75.7512 34.4246 76.0458 34.7702 76.2422C35.1158 76.4386 35.5047 76.5367 35.9368 76.5367C36.4788 76.5367 36.9305 76.4071 37.2918 76.1479C37.661 75.8808 37.9006 75.5116 38.0106 75.0403H38.8944C38.7451 75.7001 38.4113 76.2304 37.8928 76.631C37.3743 77.0316 36.7223 77.232 35.9368 77.232C35.3319 77.232 34.7938 77.0984 34.3224 76.8313C33.8511 76.5564 33.4819 76.1715 33.2148 75.6766C32.9477 75.1738 32.8142 74.5886 32.8142 73.9208ZM46.5333 73.5909C46.5333 73.8737 46.5254 74.0897 46.5097 74.239H41.1719C41.1954 74.726 41.3133 75.1424 41.5254 75.488C41.7375 75.8337 42.0163 76.0968 42.362 76.2775C42.7076 76.4503 43.0847 76.5367 43.4932 76.5367C44.0274 76.5367 44.4751 76.4071 44.8365 76.1479C45.2057 75.8887 45.4492 75.5391 45.567 75.0992H46.439C46.2819 75.7276 45.9441 76.2422 45.4256 76.6428C44.915 77.0356 44.2709 77.232 43.4932 77.232C42.8883 77.232 42.3463 77.0984 41.8671 76.8313C41.3879 76.5564 41.0108 76.1715 40.7359 75.6766C40.4688 75.1738 40.3352 74.5886 40.3352 73.9208C40.3352 73.2531 40.4688 72.6679 40.7359 72.1651C41.003 71.6624 41.3761 71.2775 41.8553 71.0104C42.3345 70.7433 42.8804 70.6097 43.4932 70.6097C44.1059 70.6097 44.6401 70.7433 45.0957 71.0104C45.5592 71.2775 45.9127 71.6388 46.1562 72.0944C46.4076 72.5422 46.5333 73.041 46.5333 73.5909ZM45.6967 73.5673C45.7045 73.0882 45.6063 72.6797 45.4021 72.3419C45.2057 72.0041 44.9347 71.7488 44.589 71.576C44.2434 71.4031 43.8663 71.3167 43.4578 71.3167C42.8451 71.3167 42.3227 71.5131 41.8906 71.9059C41.4586 72.2987 41.219 72.8525 41.1719 73.5673H45.6967ZM60.3491 70.704L58.3341 77.1377H57.5093L55.73 71.7409L53.9507 77.1377H53.1141L51.0991 70.704H51.9358L53.5383 76.3011L55.3411 70.704H56.166L57.9453 76.3129L59.536 70.704H60.3491ZM64.8318 70.5862C65.3188 70.5862 65.7548 70.6883 66.1397 70.8925C66.5325 71.0968 66.8389 71.411 67.0588 71.8352C67.2866 72.2515 67.4006 72.7622 67.4006 73.367V77.1377H66.5875V73.4613C66.5875 72.7622 66.4108 72.228 66.0573 71.8588C65.7116 71.4896 65.2363 71.3049 64.6315 71.3049C64.0109 71.3049 63.516 71.5013 63.1468 71.8941C62.7776 72.2869 62.593 72.8643 62.593 73.6263V77.1377H61.7681V68.418H62.593V71.7998C62.7972 71.4149 63.0957 71.1164 63.4885 70.9043C63.8891 70.6922 64.3369 70.5862 64.8318 70.5862ZM75.3403 73.5909C75.3403 73.8737 75.3325 74.0897 75.3167 74.239H69.9789C70.0025 74.726 70.1203 75.1424 70.3324 75.488C70.5445 75.8337 70.8234 76.0968 71.169 76.2775C71.5147 76.4503 71.8917 76.5367 72.3002 76.5367C72.8344 76.5367 73.2822 76.4071 73.6435 76.1479C74.0127 75.8887 74.2562 75.5391 74.3741 75.0992H75.246C75.0889 75.7276 74.7511 76.2422 74.2327 76.6428C73.7221 77.0356 73.0779 77.232 72.3002 77.232C71.6953 77.232 71.1533 77.0984 70.6741 76.8313C70.1949 76.5564 69.8179 76.1715 69.5429 75.6766C69.2758 75.1738 69.1423 74.5886 69.1423 73.9208C69.1423 73.2531 69.2758 72.6679 69.5429 72.1651C69.81 71.6624 70.1831 71.2775 70.6623 71.0104C71.1415 70.7433 71.6875 70.6097 72.3002 70.6097C72.9129 70.6097 73.4471 70.7433 73.9027 71.0104C74.3662 71.2775 74.7197 71.6388 74.9632 72.0944C75.2146 72.5422 75.3403 73.041 75.3403 73.5909ZM74.5037 73.5673C74.5115 73.0882 74.4134 72.6797 74.2091 72.3419C74.0127 72.0041 73.7417 71.7488 73.3961 71.576C73.0504 71.4031 72.6733 71.3167 72.2649 71.3167C71.6521 71.3167 71.1297 71.5131 70.6977 71.9059C70.2656 72.2987 70.026 72.8525 69.9789 73.5673H74.5037ZM77.9688 71.847C78.1495 71.4463 78.4244 71.1361 78.7937 70.9161C79.1707 70.6961 79.6303 70.5862 80.1723 70.5862V71.4463H79.9484C79.3514 71.4463 78.8722 71.6074 78.5109 71.9295C78.1495 72.2515 77.9688 72.7896 77.9688 73.5438V77.1377H77.144V70.704H77.9688V71.847ZM87.5287 73.5909C87.5287 73.8737 87.5208 74.0897 87.5051 74.239H82.1673C82.1908 74.726 82.3087 75.1424 82.5208 75.488C82.7329 75.8337 83.0117 76.0968 83.3574 76.2775C83.703 76.4503 84.0801 76.5367 84.4886 76.5367C85.0228 76.5367 85.4705 76.4071 85.8319 76.1479C86.2011 75.8887 86.4446 75.5391 86.5625 75.0992H87.4344C87.2773 75.7276 86.9395 76.2422 86.4211 76.6428C85.9104 77.0356 85.2663 77.232 84.4886 77.232C83.8837 77.232 83.3417 77.0984 82.8625 76.8313C82.3833 76.5564 82.0062 76.1715 81.7313 75.6766C81.4642 75.1738 81.3307 74.5886 81.3307 73.9208C81.3307 73.2531 81.4642 72.6679 81.7313 72.1651C81.9984 71.6624 82.3715 71.2775 82.8507 71.0104C83.3299 70.7433 83.8759 70.6097 84.4886 70.6097C85.1013 70.6097 85.6355 70.7433 86.0911 71.0104C86.5546 71.2775 86.9081 71.6388 87.1516 72.0944C87.403 72.5422 87.5287 73.041 87.5287 73.5909ZM86.6921 73.5673C86.6999 73.0882 86.6017 72.6797 86.3975 72.3419C86.2011 72.0041 85.9301 71.7488 85.5844 71.576C85.2388 71.4031 84.8617 71.3167 84.4532 71.3167C83.8405 71.3167 83.3181 71.5131 82.8861 71.9059C82.454 72.2987 82.2144 72.8525 82.1673 73.5673H86.6921ZM98.163 70.704L94.3452 80.166H93.485L94.734 77.1023L92.0946 70.704H93.0019L95.1936 76.195L97.3146 70.704H98.163ZM102.392 77.232C101.787 77.232 101.241 77.0984 100.754 76.8313C100.275 76.5564 99.8942 76.1715 99.6114 75.6766C99.3364 75.1738 99.199 74.5886 99.199 73.9208C99.199 73.2531 99.3404 72.6718 99.6232 72.1769C99.906 71.6742 100.291 71.2892 100.778 71.0221C101.265 70.7472 101.811 70.6097 102.416 70.6097C103.021 70.6097 103.567 70.7472 104.054 71.0221C104.549 71.2892 104.934 71.6742 105.208 72.1769C105.491 72.6718 105.633 73.2531 105.633 73.9208C105.633 74.5807 105.491 75.162 105.208 75.6648C104.926 76.1675 104.537 76.5564 104.042 76.8313C103.547 77.0984 102.997 77.232 102.392 77.232ZM102.392 76.5132C102.816 76.5132 103.209 76.4189 103.571 76.2304C103.932 76.034 104.223 75.7433 104.443 75.3584C104.67 74.9656 104.784 74.4864 104.784 73.9208C104.784 73.3552 104.674 72.88 104.454 72.4951C104.234 72.1023 103.944 71.8116 103.582 71.6231C103.221 71.4267 102.828 71.3285 102.404 71.3285C101.98 71.3285 101.587 71.4267 101.226 71.6231C100.864 71.8116 100.574 72.1023 100.354 72.4951C100.142 72.88 100.036 73.3552 100.036 73.9208C100.036 74.4864 100.142 74.9656 100.354 75.3584C100.574 75.7433 100.86 76.034 101.214 76.2304C101.575 76.4189 101.968 76.5132 102.392 76.5132ZM113.004 70.704V77.1377H112.18V76.0065C111.991 76.4071 111.7 76.7135 111.308 76.9256C110.915 77.1377 110.475 77.2437 109.988 77.2437C109.218 77.2437 108.59 77.0081 108.102 76.5367C107.615 76.0576 107.372 75.3663 107.372 74.4629V70.704H108.185V74.3686C108.185 75.0678 108.358 75.6019 108.703 75.9711C109.057 76.3404 109.536 76.525 110.141 76.525C110.762 76.525 111.256 76.3286 111.626 75.9358C111.995 75.543 112.18 74.9656 112.18 74.2036V70.704H113.004ZM121.244 71.3992H119.747V77.1377H118.922V71.3992H118.027V70.704H118.922V70.2562C118.922 69.5571 119.099 69.0425 119.453 68.7126C119.814 68.3827 120.395 68.2177 121.196 68.2177V68.9247C120.662 68.9247 120.285 69.0268 120.065 69.2311C119.853 69.4353 119.747 69.777 119.747 70.2562V70.704H121.244V71.3992ZM123.249 69.4903C123.084 69.4903 122.943 69.4314 122.825 69.3136C122.707 69.1957 122.648 69.0504 122.648 68.8776C122.648 68.7048 122.707 68.5634 122.825 68.4534C122.943 68.3355 123.084 68.2766 123.249 68.2766C123.414 68.2766 123.555 68.3355 123.673 68.4534C123.791 68.5634 123.85 68.7048 123.85 68.8776C123.85 69.0504 123.791 69.1957 123.673 69.3136C123.555 69.4314 123.414 69.4903 123.249 69.4903ZM123.661 70.704V77.1377H122.837V70.704H123.661ZM128.84 70.5862C129.61 70.5862 130.239 70.8258 130.726 71.3049C131.213 71.7763 131.456 72.4636 131.456 73.367V77.1377H130.643V73.4613C130.643 72.7622 130.467 72.228 130.113 71.8588C129.767 71.4896 129.292 71.3049 128.687 71.3049C128.067 71.3049 127.572 71.5013 127.203 71.8941C126.833 72.2869 126.649 72.8643 126.649 73.6263V77.1377H125.824V70.704H126.649V71.7998C126.853 71.4071 127.148 71.1086 127.532 70.9043C127.917 70.6922 128.353 70.5862 128.84 70.5862ZM133.198 73.9091C133.198 73.2492 133.332 72.6718 133.599 72.1769C133.866 71.6742 134.231 71.2892 134.695 71.0221C135.166 70.7472 135.696 70.6097 136.285 70.6097C136.851 70.6097 137.361 70.7472 137.817 71.0221C138.273 71.2971 138.607 71.6545 138.819 72.0944V68.418H139.644V77.1377H138.819V75.7001C138.622 76.1479 138.3 76.5171 137.852 76.8078C137.405 77.0906 136.878 77.232 136.273 77.232C135.684 77.232 135.154 77.0945 134.683 76.8195C134.219 76.5446 133.854 76.1558 133.587 75.653C133.328 75.1502 133.198 74.5689 133.198 73.9091ZM138.819 73.9208C138.819 73.4024 138.713 72.9468 138.501 72.554C138.288 72.1612 137.998 71.8588 137.629 71.6467C137.267 71.4346 136.867 71.3285 136.427 71.3285C135.971 71.3285 135.563 71.4306 135.201 71.6349C134.84 71.8391 134.553 72.1376 134.341 72.5304C134.137 72.9153 134.035 73.3749 134.035 73.9091C134.035 74.4354 134.137 74.8989 134.341 75.2995C134.553 75.6923 134.84 75.9947 135.201 76.2068C135.563 76.4111 135.971 76.5132 136.427 76.5132C136.867 76.5132 137.267 76.4071 137.629 76.195C137.998 75.9829 138.288 75.6805 138.501 75.2877C138.713 74.8949 138.819 74.4393 138.819 73.9208ZM148.413 70.5862C148.9 70.5862 149.336 70.6883 149.721 70.8925C150.114 71.0968 150.42 71.411 150.64 71.8352C150.868 72.2515 150.982 72.7622 150.982 73.367V77.1377H150.169V73.4613C150.169 72.7622 149.992 72.228 149.638 71.8588C149.293 71.4896 148.817 71.3049 148.213 71.3049C147.592 71.3049 147.097 71.5013 146.728 71.8941C146.359 72.2869 146.174 72.8643 146.174 73.6263V77.1377H145.349V68.418H146.174V71.7998C146.378 71.4149 146.677 71.1164 147.07 70.9043C147.47 70.6922 147.918 70.5862 148.413 70.5862ZM152.723 73.9091C152.723 73.2492 152.853 72.6718 153.112 72.1769C153.379 71.6742 153.745 71.2892 154.208 71.0221C154.679 70.7472 155.21 70.6097 155.799 70.6097C156.412 70.6097 156.938 70.7511 157.378 71.0339C157.826 71.3167 158.148 71.6781 158.344 72.118V70.704H159.169V77.1377H158.344V75.7119C158.14 76.1518 157.814 76.5171 157.366 76.8078C156.926 77.0906 156.4 77.232 155.787 77.232C155.206 77.232 154.679 77.0945 154.208 76.8195C153.745 76.5446 153.379 76.1558 153.112 75.653C152.853 75.1502 152.723 74.5689 152.723 73.9091ZM158.344 73.9208C158.344 73.4024 158.238 72.9468 158.026 72.554C157.814 72.1612 157.523 71.8588 157.154 71.6467C156.793 71.4346 156.392 71.3285 155.952 71.3285C155.496 71.3285 155.088 71.4306 154.727 71.6349C154.365 71.8391 154.078 72.1376 153.866 72.5304C153.662 72.9153 153.56 73.3749 153.56 73.9091C153.56 74.4354 153.662 74.8989 153.866 75.2995C154.078 75.6923 154.365 75.9947 154.727 76.2068C155.088 76.4111 155.496 76.5132 155.952 76.5132C156.392 76.5132 156.793 76.4071 157.154 76.195C157.523 75.9829 157.814 75.6805 158.026 75.2877C158.238 74.8949 158.344 74.4393 158.344 73.9208ZM162.16 72.118C162.364 71.6859 162.686 71.3285 163.126 71.0457C163.574 70.7551 164.104 70.6097 164.717 70.6097C165.298 70.6097 165.82 70.7472 166.284 71.0221C166.755 71.2892 167.12 71.6742 167.38 72.1769C167.647 72.6718 167.78 73.2492 167.78 73.9091C167.78 74.5689 167.647 75.1502 167.38 75.653C167.12 76.1558 166.755 76.5446 166.284 76.8195C165.82 77.0945 165.298 77.232 164.717 77.232C164.112 77.232 163.585 77.0906 163.138 76.8078C162.69 76.5171 162.364 76.1558 162.16 75.7237V80.1778H161.346V70.704H162.16V72.118ZM166.944 73.9091C166.944 73.3749 166.838 72.9153 166.625 72.5304C166.421 72.1376 166.138 71.8391 165.777 71.6349C165.416 71.4306 165.007 71.3285 164.552 71.3285C164.112 71.3285 163.707 71.4346 163.338 71.6467C162.977 71.8588 162.69 72.1612 162.478 72.554C162.266 72.9468 162.16 73.4024 162.16 73.9208C162.16 74.4393 162.266 74.8949 162.478 75.2877C162.69 75.6805 162.977 75.9829 163.338 76.195C163.707 76.4071 164.112 76.5132 164.552 76.5132C165.007 76.5132 165.416 76.4111 165.777 76.2068C166.138 75.9947 166.421 75.6923 166.625 75.2995C166.838 74.8989 166.944 74.4354 166.944 73.9091ZM170.005 69.4903C169.84 69.4903 169.699 69.4314 169.581 69.3136C169.463 69.1957 169.404 69.0504 169.404 68.8776C169.404 68.7048 169.463 68.5634 169.581 68.4534C169.699 68.3355 169.84 68.2766 170.005 68.2766C170.17 68.2766 170.311 68.3355 170.429 68.4534C170.547 68.5634 170.606 68.7048 170.606 68.8776C170.606 69.0504 170.547 69.1957 170.429 69.3136C170.311 69.4314 170.17 69.4903 170.005 69.4903ZM170.417 70.704V77.1377H169.593V70.704H170.417ZM175.596 70.5862C176.366 70.5862 176.995 70.8258 177.482 71.3049C177.969 71.7763 178.212 72.4636 178.212 73.367V77.1377H177.399V73.4613C177.399 72.7622 177.222 72.228 176.869 71.8588C176.523 71.4896 176.048 71.3049 175.443 71.3049C174.823 71.3049 174.328 71.5013 173.958 71.8941C173.589 72.2869 173.405 72.8643 173.405 73.6263V77.1377H172.58V70.704H173.405V71.7998C173.609 71.4071 173.903 71.1086 174.288 70.9043C174.673 70.6922 175.109 70.5862 175.596 70.5862ZM183.348 70.5862C184.117 70.5862 184.746 70.8258 185.233 71.3049C185.72 71.7763 185.963 72.4636 185.963 73.367V77.1377H185.15V73.4613C185.15 72.7622 184.974 72.228 184.62 71.8588C184.274 71.4896 183.799 71.3049 183.194 71.3049C182.574 71.3049 182.079 71.5013 181.71 71.8941C181.34 72.2869 181.156 72.8643 181.156 73.6263V77.1377H180.331V70.704H181.156V71.7998C181.36 71.4071 181.655 71.1086 182.04 70.9043C182.425 70.6922 182.86 70.5862 183.348 70.5862ZM193.903 73.5909C193.903 73.8737 193.895 74.0897 193.88 74.239H188.542C188.565 74.726 188.683 75.1424 188.895 75.488C189.107 75.8337 189.386 76.0968 189.732 76.2775C190.078 76.4503 190.455 76.5367 190.863 76.5367C191.397 76.5367 191.845 76.4071 192.206 76.1479C192.576 75.8887 192.819 75.5391 192.937 75.0992H193.809C193.652 75.7276 193.314 76.2422 192.796 76.6428C192.285 77.0356 191.641 77.232 190.863 77.232C190.258 77.232 189.716 77.0984 189.237 76.8313C188.758 76.5564 188.381 76.1715 188.106 75.6766C187.839 75.1738 187.705 74.5886 187.705 73.9208C187.705 73.2531 187.839 72.6679 188.106 72.1651C188.373 71.6624 188.746 71.2775 189.225 71.0104C189.704 70.7433 190.25 70.6097 190.863 70.6097C191.476 70.6097 192.01 70.7433 192.466 71.0104C192.929 71.2775 193.283 71.6388 193.526 72.0944C193.778 72.5422 193.903 73.041 193.903 73.5909ZM193.067 73.5673C193.074 73.0882 192.976 72.6797 192.772 72.3419C192.576 72.0041 192.305 71.7488 191.959 71.576C191.613 71.4031 191.236 71.3167 190.828 71.3167C190.215 71.3167 189.693 71.5131 189.261 71.9059C188.829 72.2987 188.589 72.8525 188.542 73.5673H193.067ZM197.922 77.232C197.184 77.232 196.579 77.0631 196.108 76.7253C195.644 76.3796 195.385 75.9122 195.33 75.3231H196.178C196.217 75.6844 196.386 75.979 196.685 76.2068C196.991 76.4268 197.4 76.5367 197.91 76.5367C198.358 76.5367 198.708 76.4307 198.959 76.2186C199.218 76.0065 199.348 75.7433 199.348 75.4291C199.348 75.2092 199.277 75.0285 199.136 74.8871C198.994 74.7457 198.814 74.6357 198.594 74.5571C198.382 74.4707 198.091 74.3804 197.722 74.2861C197.243 74.1604 196.854 74.0348 196.555 73.9091C196.257 73.7834 196.001 73.5988 195.789 73.3552C195.585 73.1039 195.483 72.77 195.483 72.3537C195.483 72.0394 195.577 71.7488 195.766 71.4817C195.954 71.2146 196.221 71.0025 196.567 70.8454C196.913 70.6883 197.305 70.6097 197.745 70.6097C198.437 70.6097 198.994 70.7865 199.419 71.14C199.843 71.4856 200.071 71.9648 200.102 72.5775H199.277C199.254 72.2005 199.104 71.898 198.829 71.6702C198.562 71.4346 198.193 71.3167 197.722 71.3167C197.305 71.3167 196.968 71.4149 196.708 71.6113C196.449 71.8077 196.32 72.0512 196.32 72.3419C196.32 72.5933 196.394 72.8014 196.543 72.9664C196.701 73.1235 196.893 73.2492 197.121 73.3435C197.349 73.4299 197.655 73.5281 198.04 73.638C198.503 73.7637 198.873 73.8855 199.148 74.0033C199.423 74.1212 199.658 74.294 199.855 74.5218C200.051 74.7496 200.153 75.052 200.161 75.4291C200.161 75.7748 200.067 76.0851 199.878 76.36C199.69 76.6271 199.426 76.8392 199.089 76.9963C198.751 77.1534 198.362 77.232 197.922 77.232Z" fill="white"/>
</svg>
